<svg xmlns="http://www.w3.org/2000/svg" width="16" height="18" viewBox="0 0 16 18">
  <g fill="none" fill-rule="evenodd" stroke="#52AFFC" stroke-linecap="round" stroke-linejoin="round" stroke-width="2" transform="translate(1 1)">
    <path d="M7.27272727 9.45454545C7.27272727 9.856 6.94763636 10.1818182 6.54545455 10.1818182 6.14327273 10.1818182 5.81818182 9.856 5.81818182 9.45454545 5.81818182 9.05309091 6.14327273 8.72727273 6.54545455 8.72727273 6.94763636 8.72727273 7.27272727 9.05309091 7.27272727 9.45454545zM2.62501818 4.26349091C1.89629091 3.52458182 1.45483636 2.57258182 1.45483636 1.53694545M11.6363636 1.53694545C11.6363636 2.57258182 11.1963636 3.52458182 10.4661818 4.26349091M1.45454545 1.53905455L1.45454545.000145454545M1.45454545 0L11.6363636 0M11.6363636 0L11.6363636 1.53890909M2.62501818 4.26349091C3.55956364 5.21621818 4.96756364 5.81767273 6.54574545 5.81767273 8.12392727 5.81767273 9.53265455 5.21621818 10.4657455 4.26349091"/>
    <polyline points="10.322 5.091 13.091 7.961 6.58 16 0 7.649 2.838 5.091"/>
    <path d="M6.544,16 L6.544,10.1818182"/>
  </g>
</svg>
